<mxfile host="app.diagrams.net" modified="2020-04-18T10:19:27.765Z" agent="5.0 (Windows NT 10.0; Win64; x64) AppleWebKit/537.36 (KHTML, like Gecko) Chrome/73.0.3683.103 Safari/537.36" etag="IXGva2wKcdwR3AUwP2Yy" version="12.9.14" type="github">
  <diagram id="6a731a19-8d31-9384-78a2-239565b7b9f0" name="Page-1">
    <mxGraphModel dx="1406" dy="784" grid="1" gridSize="10" guides="1" tooltips="1" connect="1" arrows="1" fold="1" page="1" pageScale="1" pageWidth="1169" pageHeight="827" background="#ffffff" math="0" shadow="0">
      <root>
        <mxCell id="0" />
        <mxCell id="1" parent="0" />
        <mxCell id="1745" value="" style="edgeStyle=none;rounded=0;jumpStyle=none;html=1;shadow=0;labelBackgroundColor=none;startArrow=none;startFill=0;endArrow=classic;endFill=1;jettySize=auto;orthogonalLoop=1;strokeColor=#2F5B7C;strokeWidth=3;fontFamily=Helvetica;fontSize=16;fontColor=#23445D;spacing=5;" parent="1" source="1749" target="1764" edge="1">
          <mxGeometry relative="1" as="geometry" />
        </mxCell>
        <mxCell id="1747" value="" style="edgeStyle=none;rounded=0;jumpStyle=none;html=1;shadow=0;labelBackgroundColor=none;startArrow=none;startFill=0;endArrow=classic;endFill=1;jettySize=auto;orthogonalLoop=1;strokeColor=#2F5B7C;strokeWidth=3;fontFamily=Helvetica;fontSize=16;fontColor=#23445D;spacing=5;" parent="1" source="1749" target="1760" edge="1">
          <mxGeometry relative="1" as="geometry" />
        </mxCell>
        <mxCell id="1748" value="" style="edgeStyle=none;rounded=0;jumpStyle=none;html=1;shadow=0;labelBackgroundColor=none;startArrow=none;startFill=0;endArrow=classic;endFill=1;jettySize=auto;orthogonalLoop=1;strokeColor=#2F5B7C;strokeWidth=3;fontFamily=Helvetica;fontSize=16;fontColor=#23445D;spacing=5;" parent="1" source="1749" target="1753" edge="1">
          <mxGeometry relative="1" as="geometry" />
        </mxCell>
        <mxCell id="tWuMF48Xg9CNLqT5guID-1783" style="edgeStyle=none;rounded=0;jumpStyle=none;html=1;shadow=0;labelBackgroundColor=none;startArrow=none;startFill=0;endArrow=classic;endFill=1;jettySize=auto;orthogonalLoop=1;strokeColor=#2F5B7C;strokeWidth=3;fontFamily=Helvetica;fontSize=16;fontColor=#23445D;spacing=5;" edge="1" parent="1" source="1749" target="tWuMF48Xg9CNLqT5guID-1780">
          <mxGeometry relative="1" as="geometry" />
        </mxCell>
        <mxCell id="tWuMF48Xg9CNLqT5guID-1787" style="edgeStyle=none;rounded=0;jumpStyle=none;html=1;shadow=0;labelBackgroundColor=none;startArrow=none;startFill=0;endArrow=classic;endFill=1;jettySize=auto;orthogonalLoop=1;strokeColor=#2F5B7C;strokeWidth=3;fontFamily=Helvetica;fontSize=16;fontColor=#23445D;spacing=5;" edge="1" parent="1" source="1749" target="tWuMF48Xg9CNLqT5guID-1786">
          <mxGeometry relative="1" as="geometry" />
        </mxCell>
        <mxCell id="tWuMF48Xg9CNLqT5guID-1789" style="edgeStyle=none;rounded=0;jumpStyle=none;html=1;shadow=0;labelBackgroundColor=none;startArrow=none;startFill=0;endArrow=classic;endFill=1;jettySize=auto;orthogonalLoop=1;strokeColor=#2F5B7C;strokeWidth=3;fontFamily=Helvetica;fontSize=16;fontColor=#23445D;spacing=5;" edge="1" parent="1" source="1749" target="tWuMF48Xg9CNLqT5guID-1788">
          <mxGeometry relative="1" as="geometry" />
        </mxCell>
        <mxCell id="tWuMF48Xg9CNLqT5guID-1792" style="edgeStyle=none;rounded=0;jumpStyle=none;html=1;shadow=0;labelBackgroundColor=none;startArrow=none;startFill=0;endArrow=classic;endFill=1;jettySize=auto;orthogonalLoop=1;strokeColor=#2F5B7C;strokeWidth=3;fontFamily=Helvetica;fontSize=16;fontColor=#23445D;spacing=5;" edge="1" parent="1" source="1749" target="tWuMF48Xg9CNLqT5guID-1791">
          <mxGeometry relative="1" as="geometry" />
        </mxCell>
        <mxCell id="tWuMF48Xg9CNLqT5guID-1795" style="edgeStyle=none;rounded=0;jumpStyle=none;html=1;shadow=0;labelBackgroundColor=none;startArrow=none;startFill=0;endArrow=classic;endFill=1;jettySize=auto;orthogonalLoop=1;strokeColor=#2F5B7C;strokeWidth=3;fontFamily=Helvetica;fontSize=16;fontColor=#23445D;spacing=5;" edge="1" parent="1" source="1749" target="tWuMF48Xg9CNLqT5guID-1794">
          <mxGeometry relative="1" as="geometry" />
        </mxCell>
        <mxCell id="tWuMF48Xg9CNLqT5guID-1797" style="edgeStyle=none;rounded=0;jumpStyle=none;html=1;shadow=0;labelBackgroundColor=none;startArrow=none;startFill=0;endArrow=classic;endFill=1;jettySize=auto;orthogonalLoop=1;strokeColor=#2F5B7C;strokeWidth=3;fontFamily=Helvetica;fontSize=16;fontColor=#23445D;spacing=5;" edge="1" parent="1" source="1749" target="tWuMF48Xg9CNLqT5guID-1796">
          <mxGeometry relative="1" as="geometry" />
        </mxCell>
        <mxCell id="tWuMF48Xg9CNLqT5guID-1799" style="edgeStyle=none;rounded=0;jumpStyle=none;html=1;shadow=0;labelBackgroundColor=none;startArrow=none;startFill=0;endArrow=classic;endFill=1;jettySize=auto;orthogonalLoop=1;strokeColor=#2F5B7C;strokeWidth=3;fontFamily=Helvetica;fontSize=16;fontColor=#23445D;spacing=5;" edge="1" parent="1" source="1749" target="tWuMF48Xg9CNLqT5guID-1798">
          <mxGeometry relative="1" as="geometry" />
        </mxCell>
        <mxCell id="tWuMF48Xg9CNLqT5guID-1801" style="edgeStyle=none;rounded=0;jumpStyle=none;html=1;shadow=0;labelBackgroundColor=none;startArrow=none;startFill=0;endArrow=classic;endFill=1;jettySize=auto;orthogonalLoop=1;strokeColor=#2F5B7C;strokeWidth=3;fontFamily=Helvetica;fontSize=16;fontColor=#23445D;spacing=5;" edge="1" parent="1" source="1749" target="tWuMF48Xg9CNLqT5guID-1800">
          <mxGeometry relative="1" as="geometry" />
        </mxCell>
        <mxCell id="tWuMF48Xg9CNLqT5guID-1803" style="edgeStyle=none;rounded=0;jumpStyle=none;html=1;shadow=0;labelBackgroundColor=none;startArrow=none;startFill=0;endArrow=classic;endFill=1;jettySize=auto;orthogonalLoop=1;strokeColor=#2F5B7C;strokeWidth=3;fontFamily=Helvetica;fontSize=16;fontColor=#23445D;spacing=5;" edge="1" parent="1" source="1749" target="tWuMF48Xg9CNLqT5guID-1802">
          <mxGeometry relative="1" as="geometry" />
        </mxCell>
        <mxCell id="tWuMF48Xg9CNLqT5guID-1806" style="edgeStyle=none;rounded=0;jumpStyle=none;html=1;shadow=0;labelBackgroundColor=none;startArrow=none;startFill=0;endArrow=classic;endFill=1;jettySize=auto;orthogonalLoop=1;strokeColor=#2F5B7C;strokeWidth=3;fontFamily=Helvetica;fontSize=16;fontColor=#23445D;spacing=5;" edge="1" parent="1" source="1749" target="tWuMF48Xg9CNLqT5guID-1804">
          <mxGeometry relative="1" as="geometry" />
        </mxCell>
        <mxCell id="tWuMF48Xg9CNLqT5guID-1808" style="edgeStyle=none;rounded=0;jumpStyle=none;html=1;shadow=0;labelBackgroundColor=none;startArrow=none;startFill=0;endArrow=classic;endFill=1;jettySize=auto;orthogonalLoop=1;strokeColor=#2F5B7C;strokeWidth=3;fontFamily=Helvetica;fontSize=16;fontColor=#23445D;spacing=5;" edge="1" parent="1" source="1749" target="tWuMF48Xg9CNLqT5guID-1807">
          <mxGeometry relative="1" as="geometry" />
        </mxCell>
        <mxCell id="tWuMF48Xg9CNLqT5guID-1810" style="edgeStyle=none;rounded=0;jumpStyle=none;html=1;shadow=0;labelBackgroundColor=none;startArrow=none;startFill=0;endArrow=classic;endFill=1;jettySize=auto;orthogonalLoop=1;strokeColor=#2F5B7C;strokeWidth=3;fontFamily=Helvetica;fontSize=16;fontColor=#23445D;spacing=5;" edge="1" parent="1" source="1749" target="tWuMF48Xg9CNLqT5guID-1809">
          <mxGeometry relative="1" as="geometry" />
        </mxCell>
        <mxCell id="tWuMF48Xg9CNLqT5guID-1813" style="edgeStyle=none;rounded=0;jumpStyle=none;html=1;shadow=0;labelBackgroundColor=none;startArrow=none;startFill=0;endArrow=classic;endFill=1;jettySize=auto;orthogonalLoop=1;strokeColor=#2F5B7C;strokeWidth=3;fontFamily=Helvetica;fontSize=16;fontColor=#23445D;spacing=5;" edge="1" parent="1" source="1749" target="tWuMF48Xg9CNLqT5guID-1812">
          <mxGeometry relative="1" as="geometry" />
        </mxCell>
        <mxCell id="tWuMF48Xg9CNLqT5guID-1815" style="edgeStyle=none;rounded=0;jumpStyle=none;html=1;shadow=0;labelBackgroundColor=none;startArrow=none;startFill=0;endArrow=classic;endFill=1;jettySize=auto;orthogonalLoop=1;strokeColor=#2F5B7C;strokeWidth=3;fontFamily=Helvetica;fontSize=16;fontColor=#23445D;spacing=5;" edge="1" parent="1" source="1749" target="tWuMF48Xg9CNLqT5guID-1814">
          <mxGeometry relative="1" as="geometry" />
        </mxCell>
        <mxCell id="1749" value="Spring Bean生命周期" style="rounded=1;whiteSpace=wrap;html=1;shadow=0;labelBackgroundColor=none;strokeColor=none;strokeWidth=3;fillColor=#2F5B7C;fontFamily=Helvetica;fontSize=16;fontColor=#FFFFFF;align=center;fontStyle=1;spacing=5;arcSize=7;perimeterSpacing=2;" parent="1" vertex="1">
          <mxGeometry x="520" y="390" width="150" height="70" as="geometry" />
        </mxCell>
        <mxCell id="1753" value="&lt;span style=&quot;font-family: , &amp;#34;stheiti&amp;#34; , &amp;#34;hei&amp;#34; , &amp;#34;heiti sc&amp;#34; , &amp;#34;microsoft yahei&amp;#34; , &amp;#34;arial&amp;#34; , sans-serif ; font-weight: 400&quot;&gt;9. Spring Bean&amp;nbsp;属性赋值前阶段&lt;/span&gt;" style="rounded=1;whiteSpace=wrap;html=1;shadow=0;labelBackgroundColor=none;strokeColor=none;strokeWidth=3;fillColor=#e85642;fontFamily=Helvetica;fontSize=14;fontColor=#FFFFFF;align=center;spacing=5;fontStyle=1;arcSize=7;perimeterSpacing=2;" parent="1" vertex="1">
          <mxGeometry x="80" y="290" width="150" height="60" as="geometry" />
        </mxCell>
        <mxCell id="1760" value="&lt;span style=&quot;font-family: , &amp;#34;stheiti&amp;#34; , &amp;#34;hei&amp;#34; , &amp;#34;heiti sc&amp;#34; , &amp;#34;microsoft yahei&amp;#34; , &amp;#34;arial&amp;#34; , sans-serif ; font-weight: 400&quot;&gt;7. Spring Bean&amp;nbsp;实例化阶段&lt;/span&gt;" style="rounded=1;whiteSpace=wrap;html=1;shadow=0;labelBackgroundColor=none;strokeColor=none;strokeWidth=3;fillColor=#e85642;fontFamily=Helvetica;fontSize=14;fontColor=#FFFFFF;align=center;spacing=5;fontStyle=1;arcSize=7;perimeterSpacing=2;" parent="1" vertex="1">
          <mxGeometry x="90" y="530" width="150" height="60" as="geometry" />
        </mxCell>
        <mxCell id="1764" value="&lt;span style=&quot;font-family: , &amp;#34;stheiti&amp;#34; , &amp;#34;hei&amp;#34; , &amp;#34;heiti sc&amp;#34; , &amp;#34;microsoft yahei&amp;#34; , &amp;#34;arial&amp;#34; , sans-serif ; font-weight: 400&quot;&gt;11. Spring Bean&amp;nbsp;初始化前阶段&lt;/span&gt;" style="rounded=1;whiteSpace=wrap;html=1;shadow=0;labelBackgroundColor=none;strokeColor=none;strokeWidth=3;fillColor=#F08705;fontFamily=Helvetica;fontSize=14;fontColor=#FFFFFF;align=center;spacing=5;fontStyle=1;arcSize=7;perimeterSpacing=2;" parent="1" vertex="1">
          <mxGeometry x="310" y="90" width="150" height="60" as="geometry" />
        </mxCell>
        <mxCell id="tWuMF48Xg9CNLqT5guID-1780" value="&lt;span style=&quot;font-family: , &amp;#34;stheiti&amp;#34; , &amp;#34;hei&amp;#34; , &amp;#34;heiti sc&amp;#34; , &amp;#34;microsoft yahei&amp;#34; , &amp;#34;arial&amp;#34; , sans-serif ; font-weight: 400&quot;&gt;10. Spring Bean&amp;nbsp;Aware接口回调阶段&lt;/span&gt;" style="rounded=1;whiteSpace=wrap;html=1;shadow=0;labelBackgroundColor=none;strokeColor=none;strokeWidth=3;fillColor=#e85642;fontFamily=Helvetica;fontSize=14;fontColor=#FFFFFF;align=center;spacing=5;fontStyle=1;arcSize=7;perimeterSpacing=2;" vertex="1" parent="1">
          <mxGeometry x="150" y="180" width="150" height="60" as="geometry" />
        </mxCell>
        <mxCell id="tWuMF48Xg9CNLqT5guID-1786" value="&lt;span style=&quot;font-family: , &amp;#34;stheiti&amp;#34; , &amp;#34;hei&amp;#34; , &amp;#34;heiti sc&amp;#34; , &amp;#34;microsoft yahei&amp;#34; , &amp;#34;arial&amp;#34; , sans-serif ; font-weight: 400&quot;&gt;12. Spring Bean&amp;nbsp;初始化阶段&lt;/span&gt;" style="rounded=1;whiteSpace=wrap;html=1;shadow=0;labelBackgroundColor=none;strokeColor=none;strokeWidth=3;fillColor=#F08705;fontFamily=Helvetica;fontSize=14;fontColor=#FFFFFF;align=center;spacing=5;fontStyle=1;arcSize=7;perimeterSpacing=2;" vertex="1" parent="1">
          <mxGeometry x="500" y="70" width="150" height="60" as="geometry" />
        </mxCell>
        <mxCell id="tWuMF48Xg9CNLqT5guID-1788" value="&lt;span style=&quot;font-family: , &amp;#34;stheiti&amp;#34; , &amp;#34;hei&amp;#34; , &amp;#34;heiti sc&amp;#34; , &amp;#34;microsoft yahei&amp;#34; , &amp;#34;arial&amp;#34; , sans-serif ; font-weight: 400&quot;&gt;8. Spring Bean 实例化后阶段&lt;/span&gt;" style="rounded=1;whiteSpace=wrap;html=1;shadow=0;labelBackgroundColor=none;strokeColor=none;strokeWidth=3;fillColor=#e85642;fontFamily=Helvetica;fontSize=14;fontColor=#FFFFFF;align=center;spacing=5;fontStyle=1;arcSize=7;perimeterSpacing=2;" vertex="1" parent="1">
          <mxGeometry x="70" y="400" width="150" height="60" as="geometry" />
        </mxCell>
        <mxCell id="tWuMF48Xg9CNLqT5guID-1791" value="&lt;span style=&quot;font-family: , &amp;#34;stheiti&amp;#34; , &amp;#34;hei&amp;#34; , &amp;#34;heiti sc&amp;#34; , &amp;#34;microsoft yahei&amp;#34; , &amp;#34;arial&amp;#34; , sans-serif ; font-weight: 400&quot;&gt;6. Spring Bean 实例化前阶段&lt;/span&gt;" style="rounded=1;whiteSpace=wrap;html=1;shadow=0;labelBackgroundColor=none;strokeColor=none;strokeWidth=3;fillColor=#e85642;fontFamily=Helvetica;fontSize=14;fontColor=#FFFFFF;align=center;spacing=5;fontStyle=1;arcSize=7;perimeterSpacing=2;" vertex="1" parent="1">
          <mxGeometry x="180" y="640" width="150" height="60" as="geometry" />
        </mxCell>
        <mxCell id="tWuMF48Xg9CNLqT5guID-1794" value="&lt;span style=&quot;font-family: , &amp;#34;stheiti&amp;#34; , &amp;#34;hei&amp;#34; , &amp;#34;heiti sc&amp;#34; , &amp;#34;microsoft yahei&amp;#34; , &amp;#34;arial&amp;#34; , sans-serif ; font-weight: 400&quot;&gt;5. Spring Bean class加载阶段&lt;/span&gt;" style="rounded=1;whiteSpace=wrap;html=1;shadow=0;labelBackgroundColor=none;strokeColor=none;strokeWidth=3;fillColor=#1699d3;fontFamily=Helvetica;fontSize=14;fontColor=#FFFFFF;align=center;spacing=5;fontStyle=1;arcSize=7;perimeterSpacing=2;" vertex="1" parent="1">
          <mxGeometry x="310" y="740" width="150" height="60" as="geometry" />
        </mxCell>
        <mxCell id="tWuMF48Xg9CNLqT5guID-1796" value="&lt;span style=&quot;font-family: , &amp;#34;stheiti&amp;#34; , &amp;#34;hei&amp;#34; , &amp;#34;heiti sc&amp;#34; , &amp;#34;microsoft yahei&amp;#34; , &amp;#34;arial&amp;#34; , sans-serif ; font-weight: 400&quot;&gt;4. Spring BeanDefinition合并阶段&lt;/span&gt;" style="rounded=1;whiteSpace=wrap;html=1;shadow=0;labelBackgroundColor=none;strokeColor=none;strokeWidth=3;fillColor=#1699d3;fontFamily=Helvetica;fontSize=14;fontColor=#FFFFFF;align=center;spacing=5;fontStyle=1;arcSize=7;perimeterSpacing=2;" vertex="1" parent="1">
          <mxGeometry x="500" y="767" width="150" height="60" as="geometry" />
        </mxCell>
        <mxCell id="tWuMF48Xg9CNLqT5guID-1798" value="&lt;span style=&quot;font-family: , &amp;#34;stheiti&amp;#34; , &amp;#34;hei&amp;#34; , &amp;#34;heiti sc&amp;#34; , &amp;#34;microsoft yahei&amp;#34; , &amp;#34;arial&amp;#34; , sans-serif ; font-weight: 400&quot;&gt;3. Spring Bean 注册阶段&lt;/span&gt;" style="rounded=1;whiteSpace=wrap;html=1;shadow=0;labelBackgroundColor=none;strokeColor=none;strokeWidth=3;fillColor=#1699d3;fontFamily=Helvetica;fontSize=14;fontColor=#FFFFFF;align=center;spacing=5;fontStyle=1;arcSize=7;perimeterSpacing=2;" vertex="1" parent="1">
          <mxGeometry x="670" y="750" width="150" height="60" as="geometry" />
        </mxCell>
        <mxCell id="tWuMF48Xg9CNLqT5guID-1800" value="&lt;span style=&quot;font-family: , &amp;#34;stheiti&amp;#34; , &amp;#34;hei&amp;#34; , &amp;#34;heiti sc&amp;#34; , &amp;#34;microsoft yahei&amp;#34; , &amp;#34;arial&amp;#34; , sans-serif ; font-weight: 400&quot;&gt;2. Spring Bean 元信息解析阶段&lt;/span&gt;" style="rounded=1;whiteSpace=wrap;html=1;shadow=0;labelBackgroundColor=none;strokeColor=none;strokeWidth=3;fillColor=#1699d3;fontFamily=Helvetica;fontSize=14;fontColor=#FFFFFF;align=center;spacing=5;fontStyle=1;arcSize=7;perimeterSpacing=2;" vertex="1" parent="1">
          <mxGeometry x="830" y="680" width="150" height="60" as="geometry" />
        </mxCell>
        <mxCell id="tWuMF48Xg9CNLqT5guID-1802" value="&lt;span style=&quot;font-family: , &amp;#34;stheiti&amp;#34; , &amp;#34;hei&amp;#34; , &amp;#34;heiti sc&amp;#34; , &amp;#34;microsoft yahei&amp;#34; , &amp;#34;arial&amp;#34; , sans-serif ; font-weight: 400&quot;&gt;1. Spring Bean 元信息配置阶段&lt;/span&gt;" style="rounded=1;whiteSpace=wrap;html=1;shadow=0;labelBackgroundColor=none;strokeColor=none;strokeWidth=3;fillColor=#1699d3;fontFamily=Helvetica;fontSize=14;fontColor=#FFFFFF;align=center;spacing=5;fontStyle=1;arcSize=7;perimeterSpacing=2;" vertex="1" parent="1">
          <mxGeometry x="910" y="560" width="150" height="60" as="geometry" />
        </mxCell>
        <mxCell id="tWuMF48Xg9CNLqT5guID-1804" value="&lt;span style=&quot;font-family: , &amp;#34;stheiti&amp;#34; , &amp;#34;hei&amp;#34; , &amp;#34;heiti sc&amp;#34; , &amp;#34;microsoft yahei&amp;#34; , &amp;#34;arial&amp;#34; , sans-serif ; font-weight: 400&quot;&gt;13. Spring Bean 初始化后阶段&lt;/span&gt;" style="rounded=1;whiteSpace=wrap;html=1;shadow=0;labelBackgroundColor=none;strokeColor=none;strokeWidth=3;fillColor=#F08705;fontFamily=Helvetica;fontSize=14;fontColor=#FFFFFF;align=center;spacing=5;fontStyle=1;arcSize=7;perimeterSpacing=2;" vertex="1" parent="1">
          <mxGeometry x="690" y="70" width="150" height="60" as="geometry" />
        </mxCell>
        <mxCell id="tWuMF48Xg9CNLqT5guID-1807" value="&lt;span style=&quot;font-family: , &amp;#34;stheiti&amp;#34; , &amp;#34;hei&amp;#34; , &amp;#34;heiti sc&amp;#34; , &amp;#34;microsoft yahei&amp;#34; , &amp;#34;arial&amp;#34; , sans-serif ; font-weight: 400&quot;&gt;14. Spring Bean&amp;nbsp;初始化完成阶段&lt;/span&gt;" style="rounded=1;whiteSpace=wrap;html=1;shadow=0;labelBackgroundColor=none;strokeColor=none;strokeWidth=3;fillColor=#F08705;fontFamily=Helvetica;fontSize=14;fontColor=#FFFFFF;align=center;spacing=5;fontStyle=1;arcSize=7;perimeterSpacing=2;" vertex="1" parent="1">
          <mxGeometry x="830" y="140" width="150" height="60" as="geometry" />
        </mxCell>
        <mxCell id="tWuMF48Xg9CNLqT5guID-1809" value="&lt;span style=&quot;font-family: , &amp;#34;stheiti&amp;#34; , &amp;#34;hei&amp;#34; , &amp;#34;heiti sc&amp;#34; , &amp;#34;microsoft yahei&amp;#34; , &amp;#34;arial&amp;#34; , sans-serif ; font-weight: 400&quot;&gt;15. Spring Bean&amp;nbsp;销毁前阶段&lt;/span&gt;" style="rounded=1;whiteSpace=wrap;html=1;shadow=0;labelBackgroundColor=none;strokeColor=none;strokeWidth=3;fillColor=#F08705;fontFamily=Helvetica;fontSize=14;fontColor=#FFFFFF;align=center;spacing=5;fontStyle=1;arcSize=7;perimeterSpacing=2;" vertex="1" parent="1">
          <mxGeometry x="910" y="230" width="150" height="60" as="geometry" />
        </mxCell>
        <mxCell id="tWuMF48Xg9CNLqT5guID-1812" value="&lt;span style=&quot;font-family: , &amp;#34;stheiti&amp;#34; , &amp;#34;hei&amp;#34; , &amp;#34;heiti sc&amp;#34; , &amp;#34;microsoft yahei&amp;#34; , &amp;#34;arial&amp;#34; , sans-serif ; font-weight: 400&quot;&gt;16. Spring Bean&amp;nbsp;销毁阶段&lt;/span&gt;" style="rounded=1;whiteSpace=wrap;html=1;shadow=0;labelBackgroundColor=none;strokeColor=none;strokeWidth=3;fillColor=#F08705;fontFamily=Helvetica;fontSize=14;fontColor=#FFFFFF;align=center;spacing=5;fontStyle=1;arcSize=7;perimeterSpacing=2;" vertex="1" parent="1">
          <mxGeometry x="940" y="330" width="150" height="60" as="geometry" />
        </mxCell>
        <mxCell id="tWuMF48Xg9CNLqT5guID-1814" value="&lt;span style=&quot;font-family: , &amp;#34;stheiti&amp;#34; , &amp;#34;hei&amp;#34; , &amp;#34;heiti sc&amp;#34; , &amp;#34;microsoft yahei&amp;#34; , &amp;#34;arial&amp;#34; , sans-serif ; font-weight: 400&quot;&gt;17. Spring Bean&amp;nbsp;垃圾收集&lt;/span&gt;" style="rounded=1;whiteSpace=wrap;html=1;shadow=0;labelBackgroundColor=none;strokeColor=none;strokeWidth=3;fillColor=#1699d3;fontFamily=Helvetica;fontSize=14;fontColor=#FFFFFF;align=center;spacing=5;fontStyle=1;arcSize=7;perimeterSpacing=2;" vertex="1" parent="1">
          <mxGeometry x="950" y="450" width="150" height="60" as="geometry" />
        </mxCell>
      </root>
    </mxGraphModel>
  </diagram>
</mxfile>
